G75*
%MOIN*%
%OFA0B0*%
%FSLAX25Y25*%
%IPPOS*%
%LPD*%
%AMOC8*
5,1,8,0,0,1.08239X$1,22.5*
%
%ADD10C,0.00000*%
%ADD11C,0.01181*%
%ADD12R,0.08000X0.02600*%
%ADD13C,0.07400*%
%ADD14R,0.04331X0.03937*%
%ADD15R,0.03937X0.04331*%
%ADD16R,0.04724X0.02362*%
%ADD17C,0.03937*%
%ADD18C,0.02362*%
%ADD19C,0.02978*%
D10*
X0013997Y0001000D02*
X0124233Y0001000D01*
X0124518Y0001003D01*
X0124804Y0001014D01*
X0125089Y0001031D01*
X0125373Y0001055D01*
X0125657Y0001086D01*
X0125940Y0001124D01*
X0126221Y0001169D01*
X0126502Y0001220D01*
X0126782Y0001278D01*
X0127060Y0001343D01*
X0127336Y0001415D01*
X0127610Y0001493D01*
X0127883Y0001578D01*
X0128153Y0001670D01*
X0128421Y0001768D01*
X0128687Y0001872D01*
X0128950Y0001983D01*
X0129210Y0002100D01*
X0129468Y0002223D01*
X0129722Y0002353D01*
X0129973Y0002489D01*
X0130221Y0002630D01*
X0130465Y0002778D01*
X0130706Y0002931D01*
X0130942Y0003091D01*
X0131175Y0003256D01*
X0131404Y0003426D01*
X0131629Y0003602D01*
X0131849Y0003784D01*
X0132065Y0003970D01*
X0132276Y0004162D01*
X0132483Y0004359D01*
X0132685Y0004561D01*
X0132882Y0004768D01*
X0133074Y0004979D01*
X0133260Y0005195D01*
X0133442Y0005415D01*
X0133618Y0005640D01*
X0133788Y0005869D01*
X0133953Y0006102D01*
X0134113Y0006338D01*
X0134266Y0006579D01*
X0134414Y0006823D01*
X0134555Y0007071D01*
X0134691Y0007322D01*
X0134821Y0007576D01*
X0134944Y0007834D01*
X0135061Y0008094D01*
X0135172Y0008357D01*
X0135276Y0008623D01*
X0135374Y0008891D01*
X0135466Y0009161D01*
X0135551Y0009434D01*
X0135629Y0009708D01*
X0135701Y0009984D01*
X0135766Y0010262D01*
X0135824Y0010542D01*
X0135875Y0010823D01*
X0135920Y0011104D01*
X0135958Y0011387D01*
X0135989Y0011671D01*
X0136013Y0011955D01*
X0136030Y0012240D01*
X0136041Y0012526D01*
X0136044Y0012811D01*
X0136044Y0067929D01*
X0136041Y0068214D01*
X0136030Y0068500D01*
X0136013Y0068785D01*
X0135989Y0069069D01*
X0135958Y0069353D01*
X0135920Y0069636D01*
X0135875Y0069917D01*
X0135824Y0070198D01*
X0135766Y0070478D01*
X0135701Y0070756D01*
X0135629Y0071032D01*
X0135551Y0071306D01*
X0135466Y0071579D01*
X0135374Y0071849D01*
X0135276Y0072117D01*
X0135172Y0072383D01*
X0135061Y0072646D01*
X0134944Y0072906D01*
X0134821Y0073164D01*
X0134691Y0073418D01*
X0134555Y0073669D01*
X0134414Y0073917D01*
X0134266Y0074161D01*
X0134113Y0074402D01*
X0133953Y0074638D01*
X0133788Y0074871D01*
X0133618Y0075100D01*
X0133442Y0075325D01*
X0133260Y0075545D01*
X0133074Y0075761D01*
X0132882Y0075972D01*
X0132685Y0076179D01*
X0132483Y0076381D01*
X0132276Y0076578D01*
X0132065Y0076770D01*
X0131849Y0076956D01*
X0131629Y0077138D01*
X0131404Y0077314D01*
X0131175Y0077484D01*
X0130942Y0077649D01*
X0130706Y0077809D01*
X0130465Y0077962D01*
X0130221Y0078110D01*
X0129973Y0078251D01*
X0129722Y0078387D01*
X0129468Y0078517D01*
X0129210Y0078640D01*
X0128950Y0078757D01*
X0128687Y0078868D01*
X0128421Y0078972D01*
X0128153Y0079070D01*
X0127883Y0079162D01*
X0127610Y0079247D01*
X0127336Y0079325D01*
X0127060Y0079397D01*
X0126782Y0079462D01*
X0126502Y0079520D01*
X0126221Y0079571D01*
X0125940Y0079616D01*
X0125657Y0079654D01*
X0125373Y0079685D01*
X0125089Y0079709D01*
X0124804Y0079726D01*
X0124518Y0079737D01*
X0124233Y0079740D01*
X0013997Y0079740D01*
X0013712Y0079737D01*
X0013426Y0079726D01*
X0013141Y0079709D01*
X0012857Y0079685D01*
X0012573Y0079654D01*
X0012290Y0079616D01*
X0012009Y0079571D01*
X0011728Y0079520D01*
X0011448Y0079462D01*
X0011170Y0079397D01*
X0010894Y0079325D01*
X0010620Y0079247D01*
X0010347Y0079162D01*
X0010077Y0079070D01*
X0009809Y0078972D01*
X0009543Y0078868D01*
X0009280Y0078757D01*
X0009020Y0078640D01*
X0008762Y0078517D01*
X0008508Y0078387D01*
X0008257Y0078251D01*
X0008009Y0078110D01*
X0007765Y0077962D01*
X0007524Y0077809D01*
X0007288Y0077649D01*
X0007055Y0077484D01*
X0006826Y0077314D01*
X0006601Y0077138D01*
X0006381Y0076956D01*
X0006165Y0076770D01*
X0005954Y0076578D01*
X0005747Y0076381D01*
X0005545Y0076179D01*
X0005348Y0075972D01*
X0005156Y0075761D01*
X0004970Y0075545D01*
X0004788Y0075325D01*
X0004612Y0075100D01*
X0004442Y0074871D01*
X0004277Y0074638D01*
X0004117Y0074402D01*
X0003964Y0074161D01*
X0003816Y0073917D01*
X0003675Y0073669D01*
X0003539Y0073418D01*
X0003409Y0073164D01*
X0003286Y0072906D01*
X0003169Y0072646D01*
X0003058Y0072383D01*
X0002954Y0072117D01*
X0002856Y0071849D01*
X0002764Y0071579D01*
X0002679Y0071306D01*
X0002601Y0071032D01*
X0002529Y0070756D01*
X0002464Y0070478D01*
X0002406Y0070198D01*
X0002355Y0069917D01*
X0002310Y0069636D01*
X0002272Y0069353D01*
X0002241Y0069069D01*
X0002217Y0068785D01*
X0002200Y0068500D01*
X0002189Y0068214D01*
X0002186Y0067929D01*
X0002186Y0012811D01*
X0002189Y0012526D01*
X0002200Y0012240D01*
X0002217Y0011955D01*
X0002241Y0011671D01*
X0002272Y0011387D01*
X0002310Y0011104D01*
X0002355Y0010823D01*
X0002406Y0010542D01*
X0002464Y0010262D01*
X0002529Y0009984D01*
X0002601Y0009708D01*
X0002679Y0009434D01*
X0002764Y0009161D01*
X0002856Y0008891D01*
X0002954Y0008623D01*
X0003058Y0008357D01*
X0003169Y0008094D01*
X0003286Y0007834D01*
X0003409Y0007576D01*
X0003539Y0007322D01*
X0003675Y0007071D01*
X0003816Y0006823D01*
X0003964Y0006579D01*
X0004117Y0006338D01*
X0004277Y0006102D01*
X0004442Y0005869D01*
X0004612Y0005640D01*
X0004788Y0005415D01*
X0004970Y0005195D01*
X0005156Y0004979D01*
X0005348Y0004768D01*
X0005545Y0004561D01*
X0005747Y0004359D01*
X0005954Y0004162D01*
X0006165Y0003970D01*
X0006381Y0003784D01*
X0006601Y0003602D01*
X0006826Y0003426D01*
X0007055Y0003256D01*
X0007288Y0003091D01*
X0007524Y0002931D01*
X0007765Y0002778D01*
X0008009Y0002630D01*
X0008257Y0002489D01*
X0008508Y0002353D01*
X0008762Y0002223D01*
X0009020Y0002100D01*
X0009280Y0001983D01*
X0009543Y0001872D01*
X0009809Y0001768D01*
X0010077Y0001670D01*
X0010347Y0001578D01*
X0010620Y0001493D01*
X0010894Y0001415D01*
X0011170Y0001343D01*
X0011448Y0001278D01*
X0011728Y0001220D01*
X0012009Y0001169D01*
X0012290Y0001124D01*
X0012573Y0001086D01*
X0012857Y0001055D01*
X0013141Y0001031D01*
X0013426Y0001014D01*
X0013712Y0001003D01*
X0013997Y0001000D01*
D11*
X0103654Y0054740D02*
X0103654Y0057496D01*
X0106410Y0057496D01*
X0106410Y0054740D01*
X0103654Y0054740D01*
X0103654Y0055862D02*
X0106410Y0055862D01*
X0106410Y0056984D02*
X0103654Y0056984D01*
X0110560Y0057496D02*
X0110560Y0054740D01*
X0110560Y0057496D02*
X0113316Y0057496D01*
X0113316Y0054740D01*
X0110560Y0054740D01*
X0110560Y0055862D02*
X0113316Y0055862D01*
X0113316Y0056984D02*
X0110560Y0056984D01*
X0110560Y0062614D02*
X0110560Y0065370D01*
X0113316Y0065370D01*
X0113316Y0062614D01*
X0110560Y0062614D01*
X0110560Y0063736D02*
X0113316Y0063736D01*
X0113316Y0064858D02*
X0110560Y0064858D01*
X0103654Y0065370D02*
X0103654Y0062614D01*
X0103654Y0065370D02*
X0106410Y0065370D01*
X0106410Y0062614D01*
X0103654Y0062614D01*
X0103654Y0063736D02*
X0106410Y0063736D01*
X0106410Y0064858D02*
X0103654Y0064858D01*
D12*
X0065467Y0047496D03*
X0065467Y0042496D03*
X0065467Y0037496D03*
X0065467Y0032496D03*
X0065467Y0027496D03*
X0065467Y0022496D03*
X0065467Y0017496D03*
X0041267Y0017496D03*
X0041267Y0022496D03*
X0041267Y0027496D03*
X0041267Y0032496D03*
X0041267Y0037496D03*
X0041267Y0042496D03*
X0041267Y0047496D03*
D13*
X0010060Y0046748D03*
X0010060Y0036748D03*
X0010060Y0026748D03*
X0010060Y0016748D03*
X0128170Y0016748D03*
X0128170Y0026748D03*
X0128170Y0036748D03*
X0128170Y0046748D03*
D14*
X0056714Y0060055D03*
X0050021Y0060055D03*
X0040966Y0060055D03*
X0034273Y0060055D03*
D15*
X0080926Y0056709D03*
X0088800Y0056709D03*
X0096674Y0056709D03*
X0096674Y0063402D03*
X0088800Y0063402D03*
X0080926Y0063402D03*
D16*
X0081714Y0039996D03*
X0081714Y0034996D03*
X0081714Y0029996D03*
X0081714Y0024996D03*
X0103761Y0024996D03*
X0103761Y0029996D03*
X0103761Y0034996D03*
X0103761Y0039996D03*
D17*
X0128170Y0016748D02*
X0121871Y0010449D01*
X0110454Y0010449D01*
X0030926Y0010449D01*
X0023446Y0010449D01*
X0017147Y0016748D01*
X0010060Y0016748D01*
D18*
X0010060Y0026748D02*
X0010808Y0027496D01*
X0041267Y0027496D01*
X0041385Y0027378D01*
X0046280Y0027378D01*
X0048249Y0029346D01*
X0048249Y0030528D01*
X0046280Y0032496D01*
X0041267Y0032496D01*
X0041267Y0037496D02*
X0047973Y0037496D01*
X0053367Y0032102D01*
X0053367Y0021472D01*
X0057304Y0017535D01*
X0065428Y0017535D01*
X0065467Y0017496D01*
X0065467Y0022496D02*
X0069273Y0022496D01*
X0074627Y0017142D01*
X0092343Y0017142D01*
X0102973Y0017142D01*
X0110454Y0017142D02*
X0114784Y0017142D01*
X0110454Y0017142D02*
X0110454Y0010449D01*
X0110454Y0017142D02*
X0110454Y0020685D01*
X0106143Y0024996D01*
X0103761Y0024996D01*
X0096674Y0021472D02*
X0096674Y0032890D01*
X0089568Y0039996D01*
X0081714Y0039996D01*
X0081714Y0034996D02*
X0076064Y0034996D01*
X0073564Y0037496D01*
X0065467Y0037496D01*
X0065467Y0032496D02*
X0059273Y0032496D01*
X0053761Y0038008D01*
X0053761Y0039976D01*
X0055729Y0041945D01*
X0053761Y0038008D02*
X0049273Y0042496D01*
X0041267Y0042496D01*
X0041267Y0047496D02*
X0035296Y0047496D01*
X0024548Y0036748D01*
X0010060Y0036748D01*
X0010060Y0046748D02*
X0028879Y0065567D01*
X0045493Y0065567D01*
X0046280Y0064780D01*
X0046280Y0060055D01*
X0050021Y0060055D01*
X0050021Y0055134D01*
X0057658Y0047496D01*
X0065467Y0047496D01*
X0070336Y0047496D01*
X0071871Y0049031D01*
X0071871Y0068717D01*
X0075021Y0071866D01*
X0122658Y0071866D01*
X0128170Y0066354D01*
X0128170Y0046748D01*
X0115651Y0046748D01*
X0108899Y0039996D01*
X0103761Y0039996D01*
X0097462Y0039583D02*
X0097462Y0044307D01*
X0097068Y0044701D01*
X0088013Y0044701D01*
X0080926Y0051787D01*
X0080926Y0056709D01*
X0088800Y0056709D02*
X0089194Y0056315D01*
X0089194Y0052575D01*
X0096674Y0050606D02*
X0096674Y0056709D01*
X0101005Y0056118D02*
X0105032Y0056118D01*
X0101005Y0056118D02*
X0101005Y0062024D01*
X0099627Y0063402D01*
X0096674Y0063402D01*
X0088800Y0063402D02*
X0088800Y0067142D01*
X0089981Y0068323D01*
X0103367Y0068323D01*
X0105032Y0066657D01*
X0105032Y0063992D01*
X0111938Y0063992D02*
X0111938Y0060055D01*
X0118721Y0060055D01*
X0111938Y0060055D02*
X0111938Y0056118D01*
X0080926Y0063402D02*
X0076005Y0063402D01*
X0075414Y0062811D01*
X0075414Y0046276D01*
X0071635Y0042496D01*
X0065467Y0042496D01*
X0081714Y0034996D02*
X0085513Y0034996D01*
X0087619Y0032890D01*
X0087619Y0031709D01*
X0085906Y0029996D01*
X0081714Y0029996D01*
X0081714Y0024996D02*
X0074647Y0024996D01*
X0072147Y0027496D01*
X0065467Y0027496D01*
X0081714Y0024996D02*
X0082088Y0024622D01*
X0089981Y0024622D01*
X0096674Y0021472D02*
X0092343Y0017142D01*
X0103761Y0029996D02*
X0112166Y0029996D01*
X0115414Y0026748D01*
X0128170Y0026748D01*
X0114391Y0036827D02*
X0112560Y0034996D01*
X0103761Y0034996D01*
X0114391Y0036827D02*
X0128091Y0036827D01*
X0128170Y0036748D01*
X0063210Y0060843D02*
X0061635Y0060843D01*
X0060847Y0060055D01*
X0056714Y0060055D01*
X0046280Y0060055D02*
X0040966Y0060055D01*
X0034273Y0060055D02*
X0034273Y0054491D01*
X0041267Y0047496D01*
X0041267Y0022496D02*
X0034706Y0022496D01*
X0034469Y0022260D01*
X0034824Y0017496D02*
X0030926Y0013598D01*
X0030926Y0010449D01*
X0034824Y0017496D02*
X0041267Y0017496D01*
D19*
X0034469Y0022260D03*
X0055729Y0041945D03*
X0063210Y0060843D03*
X0089194Y0052575D03*
X0096674Y0050606D03*
X0097462Y0039583D03*
X0089981Y0024622D03*
X0102973Y0017142D03*
X0114784Y0017142D03*
X0118721Y0060055D03*
M02*
