G75*
%MOIN*%
%OFA0B0*%
%FSLAX25Y25*%
%IPPOS*%
%LPD*%
%AMOC8*
5,1,8,0,0,1.08239X$1,22.5*
%
%ADD10C,0.00000*%
%ADD11C,0.00800*%
%ADD12C,0.00500*%
%ADD13C,0.00600*%
%ADD14C,0.00200*%
%ADD15C,0.00010*%
D10*
X0013997Y0001000D02*
X0124233Y0001000D01*
X0124518Y0001003D01*
X0124804Y0001014D01*
X0125089Y0001031D01*
X0125373Y0001055D01*
X0125657Y0001086D01*
X0125940Y0001124D01*
X0126221Y0001169D01*
X0126502Y0001220D01*
X0126782Y0001278D01*
X0127060Y0001343D01*
X0127336Y0001415D01*
X0127610Y0001493D01*
X0127883Y0001578D01*
X0128153Y0001670D01*
X0128421Y0001768D01*
X0128687Y0001872D01*
X0128950Y0001983D01*
X0129210Y0002100D01*
X0129468Y0002223D01*
X0129722Y0002353D01*
X0129973Y0002489D01*
X0130221Y0002630D01*
X0130465Y0002778D01*
X0130706Y0002931D01*
X0130942Y0003091D01*
X0131175Y0003256D01*
X0131404Y0003426D01*
X0131629Y0003602D01*
X0131849Y0003784D01*
X0132065Y0003970D01*
X0132276Y0004162D01*
X0132483Y0004359D01*
X0132685Y0004561D01*
X0132882Y0004768D01*
X0133074Y0004979D01*
X0133260Y0005195D01*
X0133442Y0005415D01*
X0133618Y0005640D01*
X0133788Y0005869D01*
X0133953Y0006102D01*
X0134113Y0006338D01*
X0134266Y0006579D01*
X0134414Y0006823D01*
X0134555Y0007071D01*
X0134691Y0007322D01*
X0134821Y0007576D01*
X0134944Y0007834D01*
X0135061Y0008094D01*
X0135172Y0008357D01*
X0135276Y0008623D01*
X0135374Y0008891D01*
X0135466Y0009161D01*
X0135551Y0009434D01*
X0135629Y0009708D01*
X0135701Y0009984D01*
X0135766Y0010262D01*
X0135824Y0010542D01*
X0135875Y0010823D01*
X0135920Y0011104D01*
X0135958Y0011387D01*
X0135989Y0011671D01*
X0136013Y0011955D01*
X0136030Y0012240D01*
X0136041Y0012526D01*
X0136044Y0012811D01*
X0136044Y0067929D01*
X0136041Y0068214D01*
X0136030Y0068500D01*
X0136013Y0068785D01*
X0135989Y0069069D01*
X0135958Y0069353D01*
X0135920Y0069636D01*
X0135875Y0069917D01*
X0135824Y0070198D01*
X0135766Y0070478D01*
X0135701Y0070756D01*
X0135629Y0071032D01*
X0135551Y0071306D01*
X0135466Y0071579D01*
X0135374Y0071849D01*
X0135276Y0072117D01*
X0135172Y0072383D01*
X0135061Y0072646D01*
X0134944Y0072906D01*
X0134821Y0073164D01*
X0134691Y0073418D01*
X0134555Y0073669D01*
X0134414Y0073917D01*
X0134266Y0074161D01*
X0134113Y0074402D01*
X0133953Y0074638D01*
X0133788Y0074871D01*
X0133618Y0075100D01*
X0133442Y0075325D01*
X0133260Y0075545D01*
X0133074Y0075761D01*
X0132882Y0075972D01*
X0132685Y0076179D01*
X0132483Y0076381D01*
X0132276Y0076578D01*
X0132065Y0076770D01*
X0131849Y0076956D01*
X0131629Y0077138D01*
X0131404Y0077314D01*
X0131175Y0077484D01*
X0130942Y0077649D01*
X0130706Y0077809D01*
X0130465Y0077962D01*
X0130221Y0078110D01*
X0129973Y0078251D01*
X0129722Y0078387D01*
X0129468Y0078517D01*
X0129210Y0078640D01*
X0128950Y0078757D01*
X0128687Y0078868D01*
X0128421Y0078972D01*
X0128153Y0079070D01*
X0127883Y0079162D01*
X0127610Y0079247D01*
X0127336Y0079325D01*
X0127060Y0079397D01*
X0126782Y0079462D01*
X0126502Y0079520D01*
X0126221Y0079571D01*
X0125940Y0079616D01*
X0125657Y0079654D01*
X0125373Y0079685D01*
X0125089Y0079709D01*
X0124804Y0079726D01*
X0124518Y0079737D01*
X0124233Y0079740D01*
X0013997Y0079740D01*
X0013712Y0079737D01*
X0013426Y0079726D01*
X0013141Y0079709D01*
X0012857Y0079685D01*
X0012573Y0079654D01*
X0012290Y0079616D01*
X0012009Y0079571D01*
X0011728Y0079520D01*
X0011448Y0079462D01*
X0011170Y0079397D01*
X0010894Y0079325D01*
X0010620Y0079247D01*
X0010347Y0079162D01*
X0010077Y0079070D01*
X0009809Y0078972D01*
X0009543Y0078868D01*
X0009280Y0078757D01*
X0009020Y0078640D01*
X0008762Y0078517D01*
X0008508Y0078387D01*
X0008257Y0078251D01*
X0008009Y0078110D01*
X0007765Y0077962D01*
X0007524Y0077809D01*
X0007288Y0077649D01*
X0007055Y0077484D01*
X0006826Y0077314D01*
X0006601Y0077138D01*
X0006381Y0076956D01*
X0006165Y0076770D01*
X0005954Y0076578D01*
X0005747Y0076381D01*
X0005545Y0076179D01*
X0005348Y0075972D01*
X0005156Y0075761D01*
X0004970Y0075545D01*
X0004788Y0075325D01*
X0004612Y0075100D01*
X0004442Y0074871D01*
X0004277Y0074638D01*
X0004117Y0074402D01*
X0003964Y0074161D01*
X0003816Y0073917D01*
X0003675Y0073669D01*
X0003539Y0073418D01*
X0003409Y0073164D01*
X0003286Y0072906D01*
X0003169Y0072646D01*
X0003058Y0072383D01*
X0002954Y0072117D01*
X0002856Y0071849D01*
X0002764Y0071579D01*
X0002679Y0071306D01*
X0002601Y0071032D01*
X0002529Y0070756D01*
X0002464Y0070478D01*
X0002406Y0070198D01*
X0002355Y0069917D01*
X0002310Y0069636D01*
X0002272Y0069353D01*
X0002241Y0069069D01*
X0002217Y0068785D01*
X0002200Y0068500D01*
X0002189Y0068214D01*
X0002186Y0067929D01*
X0002186Y0012811D01*
X0002189Y0012526D01*
X0002200Y0012240D01*
X0002217Y0011955D01*
X0002241Y0011671D01*
X0002272Y0011387D01*
X0002310Y0011104D01*
X0002355Y0010823D01*
X0002406Y0010542D01*
X0002464Y0010262D01*
X0002529Y0009984D01*
X0002601Y0009708D01*
X0002679Y0009434D01*
X0002764Y0009161D01*
X0002856Y0008891D01*
X0002954Y0008623D01*
X0003058Y0008357D01*
X0003169Y0008094D01*
X0003286Y0007834D01*
X0003409Y0007576D01*
X0003539Y0007322D01*
X0003675Y0007071D01*
X0003816Y0006823D01*
X0003964Y0006579D01*
X0004117Y0006338D01*
X0004277Y0006102D01*
X0004442Y0005869D01*
X0004612Y0005640D01*
X0004788Y0005415D01*
X0004970Y0005195D01*
X0005156Y0004979D01*
X0005348Y0004768D01*
X0005545Y0004561D01*
X0005747Y0004359D01*
X0005954Y0004162D01*
X0006165Y0003970D01*
X0006381Y0003784D01*
X0006601Y0003602D01*
X0006826Y0003426D01*
X0007055Y0003256D01*
X0007288Y0003091D01*
X0007524Y0002931D01*
X0007765Y0002778D01*
X0008009Y0002630D01*
X0008257Y0002489D01*
X0008508Y0002353D01*
X0008762Y0002223D01*
X0009020Y0002100D01*
X0009280Y0001983D01*
X0009543Y0001872D01*
X0009809Y0001768D01*
X0010077Y0001670D01*
X0010347Y0001578D01*
X0010620Y0001493D01*
X0010894Y0001415D01*
X0011170Y0001343D01*
X0011448Y0001278D01*
X0011728Y0001220D01*
X0012009Y0001169D01*
X0012290Y0001124D01*
X0012573Y0001086D01*
X0012857Y0001055D01*
X0013141Y0001031D01*
X0013426Y0001014D01*
X0013712Y0001003D01*
X0013997Y0001000D01*
D11*
X0012560Y0011748D02*
X0007560Y0011748D01*
X0005060Y0014248D01*
X0005060Y0019248D01*
X0007560Y0021748D01*
X0005060Y0024248D01*
X0005060Y0029248D01*
X0007560Y0031748D01*
X0005060Y0034248D01*
X0005060Y0039248D01*
X0007560Y0041748D01*
X0005060Y0044248D01*
X0005060Y0049248D01*
X0007560Y0051748D01*
X0012560Y0051748D01*
X0015060Y0049248D01*
X0015060Y0044248D01*
X0012560Y0041748D01*
X0015060Y0039248D01*
X0015060Y0034248D01*
X0012560Y0031748D01*
X0015060Y0029248D01*
X0015060Y0024248D01*
X0012560Y0021748D01*
X0015060Y0019248D01*
X0015060Y0014248D01*
X0012560Y0011748D01*
X0085075Y0022902D02*
X0085075Y0041696D01*
X0085066Y0041766D01*
X0085061Y0041838D01*
X0085060Y0041909D01*
X0085063Y0041980D01*
X0085070Y0042051D01*
X0085080Y0042122D01*
X0085094Y0042192D01*
X0085112Y0042261D01*
X0085134Y0042329D01*
X0085160Y0042396D01*
X0085189Y0042461D01*
X0085221Y0042524D01*
X0085257Y0042586D01*
X0085296Y0042646D01*
X0085339Y0042703D01*
X0085384Y0042758D01*
X0085432Y0042811D01*
X0085484Y0042861D01*
X0085537Y0042908D01*
X0085593Y0042952D01*
X0085652Y0042992D01*
X0085713Y0043030D01*
X0085775Y0043064D01*
X0085839Y0043095D01*
X0085905Y0043123D01*
X0085973Y0043146D01*
X0086041Y0043166D01*
X0086111Y0043183D01*
X0086181Y0043195D01*
X0086181Y0043196D02*
X0090137Y0043196D01*
X0090137Y0042996D02*
X0090139Y0042898D01*
X0090145Y0042800D01*
X0090154Y0042702D01*
X0090168Y0042605D01*
X0090185Y0042508D01*
X0090206Y0042412D01*
X0090231Y0042317D01*
X0090259Y0042223D01*
X0090292Y0042131D01*
X0090327Y0042039D01*
X0090367Y0041949D01*
X0090409Y0041861D01*
X0090456Y0041774D01*
X0090505Y0041690D01*
X0090558Y0041607D01*
X0090614Y0041527D01*
X0090674Y0041448D01*
X0090736Y0041372D01*
X0090801Y0041299D01*
X0090869Y0041228D01*
X0090940Y0041160D01*
X0091013Y0041095D01*
X0091089Y0041033D01*
X0091168Y0040973D01*
X0091248Y0040917D01*
X0091331Y0040864D01*
X0091415Y0040815D01*
X0091502Y0040768D01*
X0091590Y0040726D01*
X0091680Y0040686D01*
X0091772Y0040651D01*
X0091864Y0040618D01*
X0091958Y0040590D01*
X0092053Y0040565D01*
X0092149Y0040544D01*
X0092246Y0040527D01*
X0092343Y0040513D01*
X0092441Y0040504D01*
X0092539Y0040498D01*
X0092637Y0040496D01*
X0092735Y0040498D01*
X0092833Y0040504D01*
X0092931Y0040513D01*
X0093028Y0040527D01*
X0093125Y0040544D01*
X0093221Y0040565D01*
X0093316Y0040590D01*
X0093410Y0040618D01*
X0093502Y0040651D01*
X0093594Y0040686D01*
X0093684Y0040726D01*
X0093772Y0040768D01*
X0093859Y0040815D01*
X0093943Y0040864D01*
X0094026Y0040917D01*
X0094106Y0040973D01*
X0094185Y0041033D01*
X0094261Y0041095D01*
X0094334Y0041160D01*
X0094405Y0041228D01*
X0094473Y0041299D01*
X0094538Y0041372D01*
X0094600Y0041448D01*
X0094660Y0041527D01*
X0094716Y0041607D01*
X0094769Y0041690D01*
X0094818Y0041774D01*
X0094865Y0041861D01*
X0094907Y0041949D01*
X0094947Y0042039D01*
X0094982Y0042131D01*
X0095015Y0042223D01*
X0095043Y0042317D01*
X0095068Y0042412D01*
X0095089Y0042508D01*
X0095106Y0042605D01*
X0095120Y0042702D01*
X0095129Y0042800D01*
X0095135Y0042898D01*
X0095137Y0042996D01*
X0095137Y0043196D02*
X0098456Y0043196D01*
X0098506Y0043197D02*
X0098587Y0043204D01*
X0098668Y0043208D01*
X0098749Y0043207D01*
X0098831Y0043203D01*
X0098911Y0043195D01*
X0098992Y0043183D01*
X0099072Y0043168D01*
X0099151Y0043148D01*
X0099229Y0043125D01*
X0099305Y0043098D01*
X0099381Y0043068D01*
X0099455Y0043034D01*
X0099527Y0042996D01*
X0099597Y0042955D01*
X0099665Y0042911D01*
X0099731Y0042864D01*
X0099795Y0042813D01*
X0099856Y0042760D01*
X0099915Y0042703D01*
X0099971Y0042644D01*
X0100024Y0042583D01*
X0100074Y0042519D01*
X0100121Y0042452D01*
X0100165Y0042384D01*
X0100205Y0042313D01*
X0100242Y0042241D01*
X0100276Y0042167D01*
X0100305Y0042091D01*
X0100332Y0042014D01*
X0100354Y0041936D01*
X0100373Y0041857D01*
X0100388Y0041777D01*
X0100400Y0041696D01*
X0100400Y0023296D01*
X0100398Y0023220D01*
X0100392Y0023145D01*
X0100383Y0023069D01*
X0100369Y0022994D01*
X0100352Y0022920D01*
X0100331Y0022847D01*
X0100307Y0022775D01*
X0100279Y0022705D01*
X0100247Y0022636D01*
X0100212Y0022568D01*
X0100173Y0022503D01*
X0100131Y0022439D01*
X0100086Y0022378D01*
X0100038Y0022319D01*
X0099987Y0022263D01*
X0099933Y0022209D01*
X0099877Y0022158D01*
X0099818Y0022110D01*
X0099757Y0022065D01*
X0099693Y0022023D01*
X0099628Y0021984D01*
X0099560Y0021949D01*
X0099491Y0021917D01*
X0099421Y0021889D01*
X0099349Y0021865D01*
X0099276Y0021844D01*
X0099202Y0021827D01*
X0099127Y0021813D01*
X0099051Y0021804D01*
X0098976Y0021798D01*
X0098900Y0021796D01*
X0086575Y0021796D01*
X0086504Y0021787D01*
X0086433Y0021782D01*
X0086361Y0021781D01*
X0086290Y0021784D01*
X0086219Y0021791D01*
X0086148Y0021801D01*
X0086079Y0021815D01*
X0086009Y0021834D01*
X0085941Y0021855D01*
X0085875Y0021881D01*
X0085810Y0021910D01*
X0085746Y0021942D01*
X0085684Y0021978D01*
X0085625Y0022017D01*
X0085567Y0022060D01*
X0085512Y0022105D01*
X0085460Y0022154D01*
X0085410Y0022205D01*
X0085363Y0022258D01*
X0085319Y0022315D01*
X0085278Y0022373D01*
X0085240Y0022434D01*
X0085206Y0022496D01*
X0085175Y0022561D01*
X0085148Y0022627D01*
X0085124Y0022694D01*
X0085104Y0022762D01*
X0085087Y0022832D01*
X0085075Y0022902D01*
X0123170Y0024248D02*
X0123170Y0029248D01*
X0125670Y0031748D01*
X0123170Y0034248D01*
X0123170Y0039248D01*
X0125670Y0041748D01*
X0123170Y0044248D01*
X0123170Y0049248D01*
X0125670Y0051748D01*
X0130670Y0051748D01*
X0133170Y0049248D01*
X0133170Y0044248D01*
X0130670Y0041748D01*
X0133170Y0039248D01*
X0133170Y0034248D01*
X0130670Y0031748D01*
X0133170Y0029248D01*
X0133170Y0024248D01*
X0130670Y0021748D01*
X0133170Y0019248D01*
X0133170Y0014248D01*
X0130670Y0011748D01*
X0125670Y0011748D01*
X0123170Y0014248D01*
X0123170Y0019248D01*
X0125670Y0021748D01*
X0123170Y0024248D01*
X0114735Y0054243D02*
X0114735Y0057993D01*
X0114735Y0062117D02*
X0114735Y0065867D01*
D12*
X0110129Y0067992D02*
X0109073Y0067992D01*
X0109601Y0067992D02*
X0109601Y0069892D01*
X0109073Y0069470D01*
X0107897Y0069364D02*
X0107897Y0068520D01*
X0107895Y0068476D01*
X0107890Y0068433D01*
X0107881Y0068390D01*
X0107868Y0068349D01*
X0107853Y0068308D01*
X0107833Y0068269D01*
X0107811Y0068231D01*
X0107786Y0068196D01*
X0107757Y0068162D01*
X0107727Y0068132D01*
X0107693Y0068103D01*
X0107658Y0068078D01*
X0107620Y0068056D01*
X0107581Y0068036D01*
X0107540Y0068021D01*
X0107499Y0068008D01*
X0107456Y0067999D01*
X0107413Y0067994D01*
X0107369Y0067992D01*
X0106841Y0067992D01*
X0106841Y0069892D01*
X0107369Y0069892D01*
X0107413Y0069890D01*
X0107456Y0069885D01*
X0107499Y0069876D01*
X0107540Y0069863D01*
X0107581Y0069848D01*
X0107620Y0069828D01*
X0107658Y0069806D01*
X0107693Y0069781D01*
X0107727Y0069752D01*
X0107757Y0069722D01*
X0107786Y0069688D01*
X0107811Y0069653D01*
X0107833Y0069615D01*
X0107853Y0069576D01*
X0107868Y0069535D01*
X0107881Y0069494D01*
X0107890Y0069451D01*
X0107895Y0069408D01*
X0107897Y0069364D01*
X0107369Y0062018D02*
X0106841Y0062018D01*
X0106841Y0060118D01*
X0107369Y0060118D01*
X0107413Y0060120D01*
X0107456Y0060125D01*
X0107499Y0060134D01*
X0107540Y0060147D01*
X0107581Y0060162D01*
X0107620Y0060182D01*
X0107658Y0060204D01*
X0107693Y0060229D01*
X0107727Y0060258D01*
X0107757Y0060288D01*
X0107786Y0060322D01*
X0107811Y0060357D01*
X0107833Y0060395D01*
X0107853Y0060434D01*
X0107868Y0060475D01*
X0107881Y0060516D01*
X0107890Y0060559D01*
X0107895Y0060602D01*
X0107897Y0060646D01*
X0107897Y0061490D01*
X0107895Y0061534D01*
X0107890Y0061577D01*
X0107881Y0061620D01*
X0107868Y0061661D01*
X0107853Y0061702D01*
X0107833Y0061741D01*
X0107811Y0061779D01*
X0107786Y0061814D01*
X0107757Y0061848D01*
X0107727Y0061878D01*
X0107693Y0061907D01*
X0107658Y0061932D01*
X0107620Y0061954D01*
X0107581Y0061974D01*
X0107540Y0061989D01*
X0107499Y0062002D01*
X0107456Y0062011D01*
X0107413Y0062016D01*
X0107369Y0062018D01*
X0109971Y0061174D02*
X0109999Y0061203D01*
X0110026Y0061235D01*
X0110049Y0061269D01*
X0110070Y0061305D01*
X0110088Y0061342D01*
X0110102Y0061381D01*
X0110114Y0061420D01*
X0110122Y0061461D01*
X0110127Y0061502D01*
X0110129Y0061543D01*
X0109971Y0061174D02*
X0109073Y0060118D01*
X0110129Y0060118D01*
X0109074Y0061596D02*
X0109090Y0061641D01*
X0109110Y0061684D01*
X0109134Y0061726D01*
X0109160Y0061766D01*
X0109190Y0061804D01*
X0109222Y0061839D01*
X0109258Y0061872D01*
X0109295Y0061901D01*
X0109335Y0061928D01*
X0109377Y0061951D01*
X0109420Y0061971D01*
X0109465Y0061988D01*
X0109511Y0062001D01*
X0109559Y0062010D01*
X0109606Y0062016D01*
X0109654Y0062018D01*
X0109695Y0062016D01*
X0109736Y0062011D01*
X0109777Y0062002D01*
X0109816Y0061989D01*
X0109855Y0061973D01*
X0109892Y0061954D01*
X0109926Y0061932D01*
X0109959Y0061907D01*
X0109990Y0061879D01*
X0110018Y0061848D01*
X0110043Y0061815D01*
X0110065Y0061781D01*
X0110084Y0061744D01*
X0110100Y0061705D01*
X0110113Y0061666D01*
X0110122Y0061625D01*
X0110127Y0061584D01*
X0110129Y0061543D01*
X0103324Y0061334D02*
X0102480Y0061334D01*
X0102902Y0061650D02*
X0102902Y0060595D01*
X0101424Y0061017D01*
X0101424Y0058988D02*
X0101424Y0058460D01*
X0103324Y0058460D01*
X0102480Y0058460D02*
X0102480Y0058988D01*
X0102480Y0059093D02*
X0103324Y0059515D01*
X0102480Y0058988D02*
X0102478Y0059033D01*
X0102472Y0059077D01*
X0102463Y0059121D01*
X0102450Y0059164D01*
X0102433Y0059205D01*
X0102413Y0059246D01*
X0102389Y0059284D01*
X0102363Y0059320D01*
X0102333Y0059353D01*
X0102301Y0059384D01*
X0102266Y0059413D01*
X0102229Y0059438D01*
X0102190Y0059459D01*
X0102149Y0059478D01*
X0102107Y0059493D01*
X0102063Y0059504D01*
X0102019Y0059512D01*
X0101974Y0059516D01*
X0101930Y0059516D01*
X0101885Y0059512D01*
X0101841Y0059504D01*
X0101797Y0059493D01*
X0101755Y0059478D01*
X0101714Y0059459D01*
X0101675Y0059438D01*
X0101638Y0059413D01*
X0101603Y0059384D01*
X0101571Y0059353D01*
X0101541Y0059320D01*
X0101515Y0059284D01*
X0101491Y0059246D01*
X0101471Y0059205D01*
X0101454Y0059164D01*
X0101441Y0059121D01*
X0101432Y0059077D01*
X0101426Y0059033D01*
X0101424Y0058988D01*
X0095450Y0059515D02*
X0094606Y0059093D01*
X0094606Y0058988D02*
X0094606Y0058460D01*
X0094606Y0058988D02*
X0094604Y0059033D01*
X0094598Y0059077D01*
X0094589Y0059121D01*
X0094576Y0059164D01*
X0094559Y0059205D01*
X0094539Y0059246D01*
X0094515Y0059284D01*
X0094489Y0059320D01*
X0094459Y0059353D01*
X0094427Y0059384D01*
X0094392Y0059413D01*
X0094355Y0059438D01*
X0094316Y0059459D01*
X0094275Y0059478D01*
X0094233Y0059493D01*
X0094189Y0059504D01*
X0094145Y0059512D01*
X0094100Y0059516D01*
X0094056Y0059516D01*
X0094011Y0059512D01*
X0093967Y0059504D01*
X0093923Y0059493D01*
X0093881Y0059478D01*
X0093840Y0059459D01*
X0093801Y0059438D01*
X0093764Y0059413D01*
X0093729Y0059384D01*
X0093697Y0059353D01*
X0093667Y0059320D01*
X0093641Y0059284D01*
X0093617Y0059246D01*
X0093597Y0059205D01*
X0093580Y0059164D01*
X0093567Y0059121D01*
X0093558Y0059077D01*
X0093552Y0059033D01*
X0093550Y0058988D01*
X0093550Y0058460D01*
X0095450Y0058460D01*
X0095450Y0060595D02*
X0095450Y0061123D01*
X0095448Y0061168D01*
X0095442Y0061212D01*
X0095433Y0061256D01*
X0095420Y0061299D01*
X0095403Y0061340D01*
X0095383Y0061381D01*
X0095359Y0061419D01*
X0095333Y0061455D01*
X0095303Y0061488D01*
X0095271Y0061519D01*
X0095236Y0061548D01*
X0095199Y0061573D01*
X0095160Y0061594D01*
X0095119Y0061613D01*
X0095077Y0061628D01*
X0095033Y0061639D01*
X0094989Y0061647D01*
X0094944Y0061651D01*
X0094900Y0061651D01*
X0094855Y0061647D01*
X0094811Y0061639D01*
X0094767Y0061628D01*
X0094725Y0061613D01*
X0094684Y0061594D01*
X0094645Y0061573D01*
X0094608Y0061548D01*
X0094573Y0061519D01*
X0094541Y0061488D01*
X0094511Y0061455D01*
X0094485Y0061419D01*
X0094461Y0061381D01*
X0094441Y0061340D01*
X0094424Y0061299D01*
X0094411Y0061256D01*
X0094402Y0061212D01*
X0094396Y0061168D01*
X0094394Y0061123D01*
X0094395Y0061228D02*
X0094395Y0060806D01*
X0094394Y0061228D02*
X0094392Y0061268D01*
X0094386Y0061308D01*
X0094377Y0061347D01*
X0094364Y0061385D01*
X0094347Y0061421D01*
X0094327Y0061456D01*
X0094304Y0061489D01*
X0094277Y0061519D01*
X0094248Y0061547D01*
X0094217Y0061572D01*
X0094183Y0061593D01*
X0094147Y0061612D01*
X0094110Y0061627D01*
X0094071Y0061638D01*
X0094032Y0061646D01*
X0093992Y0061650D01*
X0093952Y0061650D01*
X0093912Y0061646D01*
X0093873Y0061638D01*
X0093834Y0061627D01*
X0093797Y0061612D01*
X0093761Y0061593D01*
X0093727Y0061572D01*
X0093696Y0061547D01*
X0093667Y0061519D01*
X0093640Y0061489D01*
X0093617Y0061456D01*
X0093597Y0061421D01*
X0093580Y0061385D01*
X0093567Y0061347D01*
X0093558Y0061308D01*
X0093552Y0061268D01*
X0093550Y0061228D01*
X0093550Y0060595D01*
X0087576Y0060595D02*
X0087576Y0061228D01*
X0087574Y0061267D01*
X0087569Y0061306D01*
X0087560Y0061343D01*
X0087548Y0061380D01*
X0087532Y0061416D01*
X0087513Y0061450D01*
X0087491Y0061482D01*
X0087466Y0061512D01*
X0087438Y0061540D01*
X0087408Y0061565D01*
X0087376Y0061587D01*
X0087342Y0061606D01*
X0087306Y0061622D01*
X0087269Y0061634D01*
X0087232Y0061643D01*
X0087193Y0061648D01*
X0087154Y0061650D01*
X0086943Y0061650D01*
X0086904Y0061648D01*
X0086865Y0061643D01*
X0086828Y0061634D01*
X0086791Y0061622D01*
X0086755Y0061606D01*
X0086721Y0061587D01*
X0086689Y0061565D01*
X0086659Y0061540D01*
X0086631Y0061512D01*
X0086606Y0061482D01*
X0086584Y0061450D01*
X0086565Y0061416D01*
X0086549Y0061380D01*
X0086537Y0061343D01*
X0086528Y0061306D01*
X0086523Y0061267D01*
X0086521Y0061228D01*
X0086521Y0060595D01*
X0085676Y0060595D01*
X0085676Y0061650D01*
X0085676Y0058988D02*
X0085676Y0058460D01*
X0087576Y0058460D01*
X0086732Y0058460D02*
X0086732Y0058988D01*
X0086732Y0059093D02*
X0087576Y0059515D01*
X0086732Y0058988D02*
X0086730Y0059033D01*
X0086724Y0059077D01*
X0086715Y0059121D01*
X0086702Y0059164D01*
X0086685Y0059205D01*
X0086665Y0059246D01*
X0086641Y0059284D01*
X0086615Y0059320D01*
X0086585Y0059353D01*
X0086553Y0059384D01*
X0086518Y0059413D01*
X0086481Y0059438D01*
X0086442Y0059459D01*
X0086401Y0059478D01*
X0086359Y0059493D01*
X0086315Y0059504D01*
X0086271Y0059512D01*
X0086226Y0059516D01*
X0086182Y0059516D01*
X0086137Y0059512D01*
X0086093Y0059504D01*
X0086049Y0059493D01*
X0086007Y0059478D01*
X0085966Y0059459D01*
X0085927Y0059438D01*
X0085890Y0059413D01*
X0085855Y0059384D01*
X0085823Y0059353D01*
X0085793Y0059320D01*
X0085767Y0059284D01*
X0085743Y0059246D01*
X0085723Y0059205D01*
X0085706Y0059164D01*
X0085693Y0059121D01*
X0085684Y0059077D01*
X0085678Y0059033D01*
X0085676Y0058988D01*
X0091093Y0047146D02*
X0091093Y0045774D01*
X0091095Y0045729D01*
X0091101Y0045685D01*
X0091110Y0045641D01*
X0091123Y0045598D01*
X0091140Y0045557D01*
X0091160Y0045516D01*
X0091184Y0045478D01*
X0091210Y0045442D01*
X0091240Y0045409D01*
X0091272Y0045378D01*
X0091307Y0045349D01*
X0091344Y0045324D01*
X0091383Y0045303D01*
X0091424Y0045284D01*
X0091466Y0045269D01*
X0091510Y0045258D01*
X0091554Y0045250D01*
X0091599Y0045246D01*
X0091643Y0045246D01*
X0091688Y0045250D01*
X0091732Y0045258D01*
X0091776Y0045269D01*
X0091818Y0045284D01*
X0091859Y0045303D01*
X0091898Y0045324D01*
X0091935Y0045349D01*
X0091970Y0045378D01*
X0092002Y0045409D01*
X0092032Y0045442D01*
X0092058Y0045478D01*
X0092082Y0045516D01*
X0092102Y0045557D01*
X0092119Y0045598D01*
X0092132Y0045641D01*
X0092141Y0045685D01*
X0092147Y0045729D01*
X0092149Y0045774D01*
X0092149Y0047146D01*
X0093325Y0046724D02*
X0093853Y0047146D01*
X0093853Y0045246D01*
X0093325Y0045246D02*
X0094381Y0045246D01*
X0055217Y0051746D02*
X0052717Y0051746D01*
X0053967Y0051746D02*
X0053967Y0056246D01*
X0052717Y0055246D01*
X0052300Y0055305D02*
X0051772Y0055305D01*
X0051772Y0053405D01*
X0051772Y0054250D02*
X0052300Y0054250D01*
X0052405Y0054250D02*
X0052827Y0053405D01*
X0053907Y0053405D02*
X0054804Y0054461D01*
X0054487Y0055305D02*
X0054439Y0055303D01*
X0054392Y0055297D01*
X0054344Y0055288D01*
X0054298Y0055275D01*
X0054253Y0055258D01*
X0054210Y0055238D01*
X0054168Y0055215D01*
X0054128Y0055188D01*
X0054091Y0055159D01*
X0054055Y0055126D01*
X0054023Y0055091D01*
X0053993Y0055053D01*
X0053967Y0055013D01*
X0053943Y0054971D01*
X0053923Y0054928D01*
X0053907Y0054883D01*
X0054804Y0054461D02*
X0054832Y0054490D01*
X0054859Y0054522D01*
X0054882Y0054556D01*
X0054903Y0054592D01*
X0054921Y0054629D01*
X0054935Y0054668D01*
X0054947Y0054707D01*
X0054955Y0054748D01*
X0054960Y0054789D01*
X0054962Y0054830D01*
X0054960Y0054871D01*
X0054955Y0054912D01*
X0054946Y0054953D01*
X0054933Y0054992D01*
X0054917Y0055031D01*
X0054898Y0055068D01*
X0054876Y0055102D01*
X0054851Y0055135D01*
X0054823Y0055166D01*
X0054792Y0055194D01*
X0054759Y0055219D01*
X0054725Y0055241D01*
X0054688Y0055260D01*
X0054649Y0055276D01*
X0054610Y0055289D01*
X0054569Y0055298D01*
X0054528Y0055303D01*
X0054487Y0055305D01*
X0052300Y0055305D02*
X0052345Y0055303D01*
X0052389Y0055297D01*
X0052433Y0055288D01*
X0052476Y0055275D01*
X0052517Y0055258D01*
X0052558Y0055238D01*
X0052596Y0055214D01*
X0052632Y0055188D01*
X0052665Y0055158D01*
X0052696Y0055126D01*
X0052725Y0055091D01*
X0052750Y0055054D01*
X0052771Y0055015D01*
X0052790Y0054974D01*
X0052805Y0054932D01*
X0052816Y0054888D01*
X0052824Y0054844D01*
X0052828Y0054799D01*
X0052828Y0054755D01*
X0052824Y0054710D01*
X0052816Y0054666D01*
X0052805Y0054622D01*
X0052790Y0054580D01*
X0052771Y0054539D01*
X0052750Y0054500D01*
X0052725Y0054463D01*
X0052696Y0054428D01*
X0052665Y0054396D01*
X0052632Y0054366D01*
X0052596Y0054340D01*
X0052558Y0054316D01*
X0052517Y0054296D01*
X0052476Y0054279D01*
X0052433Y0054266D01*
X0052389Y0054257D01*
X0052345Y0054251D01*
X0052300Y0054249D01*
X0053907Y0053405D02*
X0054962Y0053405D01*
X0050952Y0051746D02*
X0049952Y0051746D01*
X0049892Y0051748D01*
X0049831Y0051753D01*
X0049772Y0051762D01*
X0049713Y0051775D01*
X0049654Y0051791D01*
X0049597Y0051811D01*
X0049542Y0051834D01*
X0049487Y0051861D01*
X0049435Y0051890D01*
X0049384Y0051923D01*
X0049335Y0051959D01*
X0049289Y0051997D01*
X0049245Y0052039D01*
X0049203Y0052083D01*
X0049165Y0052129D01*
X0049129Y0052178D01*
X0049096Y0052229D01*
X0049067Y0052281D01*
X0049040Y0052336D01*
X0049017Y0052391D01*
X0048997Y0052448D01*
X0048981Y0052507D01*
X0048968Y0052566D01*
X0048959Y0052625D01*
X0048954Y0052686D01*
X0048952Y0052746D01*
X0048952Y0055246D01*
X0048954Y0055306D01*
X0048959Y0055367D01*
X0048968Y0055426D01*
X0048981Y0055485D01*
X0048997Y0055544D01*
X0049017Y0055601D01*
X0049040Y0055656D01*
X0049067Y0055711D01*
X0049096Y0055763D01*
X0049129Y0055814D01*
X0049165Y0055863D01*
X0049203Y0055909D01*
X0049245Y0055953D01*
X0049289Y0055995D01*
X0049335Y0056033D01*
X0049384Y0056069D01*
X0049435Y0056102D01*
X0049487Y0056131D01*
X0049542Y0056158D01*
X0049597Y0056181D01*
X0049654Y0056201D01*
X0049713Y0056217D01*
X0049772Y0056230D01*
X0049831Y0056239D01*
X0049892Y0056244D01*
X0049952Y0056246D01*
X0050952Y0056246D01*
X0047117Y0056246D02*
X0046117Y0056246D01*
X0046617Y0056246D02*
X0046617Y0051746D01*
X0046117Y0051746D02*
X0047117Y0051746D01*
X0039214Y0064805D02*
X0038159Y0064805D01*
X0038686Y0064805D02*
X0038686Y0066705D01*
X0038159Y0066283D01*
X0036552Y0066705D02*
X0036597Y0066703D01*
X0036641Y0066697D01*
X0036685Y0066688D01*
X0036728Y0066675D01*
X0036769Y0066658D01*
X0036810Y0066638D01*
X0036848Y0066614D01*
X0036884Y0066588D01*
X0036917Y0066558D01*
X0036948Y0066526D01*
X0036977Y0066491D01*
X0037002Y0066454D01*
X0037023Y0066415D01*
X0037042Y0066374D01*
X0037057Y0066332D01*
X0037068Y0066288D01*
X0037076Y0066244D01*
X0037080Y0066199D01*
X0037080Y0066155D01*
X0037076Y0066110D01*
X0037068Y0066066D01*
X0037057Y0066022D01*
X0037042Y0065980D01*
X0037023Y0065939D01*
X0037002Y0065900D01*
X0036977Y0065863D01*
X0036948Y0065828D01*
X0036917Y0065796D01*
X0036884Y0065766D01*
X0036848Y0065740D01*
X0036810Y0065716D01*
X0036769Y0065696D01*
X0036728Y0065679D01*
X0036685Y0065666D01*
X0036641Y0065657D01*
X0036597Y0065651D01*
X0036552Y0065649D01*
X0036552Y0065650D02*
X0036024Y0065650D01*
X0036657Y0065650D02*
X0037079Y0064805D01*
X0036024Y0064805D02*
X0036024Y0066705D01*
X0036552Y0066705D01*
X0004310Y0014848D02*
X0004310Y0013792D01*
X0004310Y0014320D02*
X0002410Y0014320D01*
X0002832Y0013792D01*
X0002410Y0012631D02*
X0003888Y0012631D01*
X0003927Y0012629D01*
X0003966Y0012624D01*
X0004003Y0012615D01*
X0004040Y0012603D01*
X0004076Y0012587D01*
X0004110Y0012568D01*
X0004142Y0012546D01*
X0004172Y0012521D01*
X0004200Y0012493D01*
X0004225Y0012463D01*
X0004247Y0012431D01*
X0004266Y0012397D01*
X0004282Y0012361D01*
X0004294Y0012324D01*
X0004303Y0012287D01*
X0004308Y0012248D01*
X0004310Y0012209D01*
X0004310Y0011998D01*
X0120520Y0012631D02*
X0121998Y0012631D01*
X0122037Y0012629D01*
X0122076Y0012624D01*
X0122113Y0012615D01*
X0122150Y0012603D01*
X0122186Y0012587D01*
X0122220Y0012568D01*
X0122252Y0012546D01*
X0122282Y0012521D01*
X0122310Y0012493D01*
X0122335Y0012463D01*
X0122357Y0012431D01*
X0122376Y0012397D01*
X0122392Y0012361D01*
X0122404Y0012324D01*
X0122413Y0012287D01*
X0122418Y0012248D01*
X0122420Y0012209D01*
X0122420Y0011998D01*
X0122420Y0013792D02*
X0122420Y0014848D01*
X0122420Y0013792D02*
X0121365Y0014689D01*
X0120520Y0014372D02*
X0120522Y0014324D01*
X0120528Y0014277D01*
X0120537Y0014230D01*
X0120550Y0014183D01*
X0120566Y0014138D01*
X0120587Y0014095D01*
X0120610Y0014053D01*
X0120637Y0014013D01*
X0120666Y0013976D01*
X0120699Y0013940D01*
X0120734Y0013908D01*
X0120772Y0013878D01*
X0120812Y0013852D01*
X0120854Y0013828D01*
X0120897Y0013808D01*
X0120942Y0013792D01*
X0121364Y0014689D02*
X0121335Y0014717D01*
X0121303Y0014744D01*
X0121269Y0014767D01*
X0121233Y0014788D01*
X0121196Y0014806D01*
X0121157Y0014820D01*
X0121118Y0014832D01*
X0121077Y0014840D01*
X0121036Y0014845D01*
X0120995Y0014847D01*
X0120954Y0014845D01*
X0120913Y0014840D01*
X0120872Y0014831D01*
X0120833Y0014818D01*
X0120794Y0014802D01*
X0120758Y0014783D01*
X0120723Y0014761D01*
X0120690Y0014736D01*
X0120659Y0014708D01*
X0120631Y0014677D01*
X0120606Y0014644D01*
X0120584Y0014610D01*
X0120565Y0014573D01*
X0120549Y0014534D01*
X0120536Y0014495D01*
X0120527Y0014455D01*
X0120522Y0014413D01*
X0120520Y0014372D01*
D13*
X0059567Y0014996D02*
X0047167Y0014996D01*
X0047091Y0014998D01*
X0047015Y0015004D01*
X0046940Y0015013D01*
X0046865Y0015027D01*
X0046791Y0015044D01*
X0046718Y0015065D01*
X0046646Y0015089D01*
X0046575Y0015118D01*
X0046506Y0015149D01*
X0046439Y0015184D01*
X0046374Y0015223D01*
X0046310Y0015265D01*
X0046249Y0015310D01*
X0046190Y0015358D01*
X0046134Y0015409D01*
X0046080Y0015463D01*
X0046029Y0015519D01*
X0045981Y0015578D01*
X0045936Y0015639D01*
X0045894Y0015703D01*
X0045855Y0015768D01*
X0045820Y0015835D01*
X0045789Y0015904D01*
X0045760Y0015975D01*
X0045736Y0016047D01*
X0045715Y0016120D01*
X0045698Y0016194D01*
X0045684Y0016269D01*
X0045675Y0016344D01*
X0045669Y0016420D01*
X0045667Y0016496D01*
X0059567Y0014996D02*
X0059643Y0014998D01*
X0059719Y0015004D01*
X0059794Y0015013D01*
X0059869Y0015027D01*
X0059943Y0015044D01*
X0060016Y0015065D01*
X0060088Y0015089D01*
X0060159Y0015118D01*
X0060228Y0015149D01*
X0060295Y0015184D01*
X0060360Y0015223D01*
X0060424Y0015265D01*
X0060485Y0015310D01*
X0060544Y0015358D01*
X0060600Y0015409D01*
X0060654Y0015463D01*
X0060705Y0015519D01*
X0060753Y0015578D01*
X0060798Y0015639D01*
X0060840Y0015703D01*
X0060879Y0015768D01*
X0060914Y0015835D01*
X0060945Y0015904D01*
X0060974Y0015975D01*
X0060998Y0016047D01*
X0061019Y0016120D01*
X0061036Y0016194D01*
X0061050Y0016269D01*
X0061059Y0016344D01*
X0061065Y0016420D01*
X0061067Y0016496D01*
X0061067Y0048496D02*
X0061065Y0048572D01*
X0061059Y0048648D01*
X0061050Y0048723D01*
X0061036Y0048798D01*
X0061019Y0048872D01*
X0060998Y0048945D01*
X0060974Y0049017D01*
X0060945Y0049088D01*
X0060914Y0049157D01*
X0060879Y0049224D01*
X0060840Y0049289D01*
X0060798Y0049353D01*
X0060753Y0049414D01*
X0060705Y0049473D01*
X0060654Y0049529D01*
X0060600Y0049583D01*
X0060544Y0049634D01*
X0060485Y0049682D01*
X0060424Y0049727D01*
X0060360Y0049769D01*
X0060295Y0049808D01*
X0060228Y0049843D01*
X0060159Y0049874D01*
X0060088Y0049903D01*
X0060016Y0049927D01*
X0059943Y0049948D01*
X0059869Y0049965D01*
X0059794Y0049979D01*
X0059719Y0049988D01*
X0059643Y0049994D01*
X0059567Y0049996D01*
X0055367Y0049996D01*
X0051367Y0049996D01*
X0047167Y0049996D01*
X0047091Y0049994D01*
X0047015Y0049988D01*
X0046940Y0049979D01*
X0046865Y0049965D01*
X0046791Y0049948D01*
X0046718Y0049927D01*
X0046646Y0049903D01*
X0046575Y0049874D01*
X0046506Y0049843D01*
X0046439Y0049808D01*
X0046374Y0049769D01*
X0046310Y0049727D01*
X0046249Y0049682D01*
X0046190Y0049634D01*
X0046134Y0049583D01*
X0046080Y0049529D01*
X0046029Y0049473D01*
X0045981Y0049414D01*
X0045936Y0049353D01*
X0045894Y0049289D01*
X0045855Y0049224D01*
X0045820Y0049157D01*
X0045789Y0049088D01*
X0045760Y0049017D01*
X0045736Y0048945D01*
X0045715Y0048872D01*
X0045698Y0048798D01*
X0045684Y0048723D01*
X0045675Y0048648D01*
X0045669Y0048572D01*
X0045667Y0048496D01*
X0051367Y0049996D02*
X0051369Y0049908D01*
X0051375Y0049819D01*
X0051385Y0049731D01*
X0051398Y0049644D01*
X0051416Y0049557D01*
X0051437Y0049471D01*
X0051462Y0049386D01*
X0051491Y0049303D01*
X0051524Y0049220D01*
X0051560Y0049140D01*
X0051599Y0049061D01*
X0051642Y0048983D01*
X0051689Y0048908D01*
X0051739Y0048835D01*
X0051792Y0048764D01*
X0051848Y0048695D01*
X0051907Y0048629D01*
X0051969Y0048566D01*
X0052033Y0048506D01*
X0052100Y0048448D01*
X0052170Y0048394D01*
X0052242Y0048342D01*
X0052316Y0048294D01*
X0052393Y0048249D01*
X0052471Y0048208D01*
X0052551Y0048170D01*
X0052632Y0048136D01*
X0052715Y0048105D01*
X0052800Y0048078D01*
X0052885Y0048055D01*
X0052971Y0048036D01*
X0053059Y0048020D01*
X0053146Y0048008D01*
X0053234Y0048000D01*
X0053323Y0047996D01*
X0053411Y0047996D01*
X0053500Y0048000D01*
X0053588Y0048008D01*
X0053675Y0048020D01*
X0053763Y0048036D01*
X0053849Y0048055D01*
X0053934Y0048078D01*
X0054019Y0048105D01*
X0054102Y0048136D01*
X0054183Y0048170D01*
X0054263Y0048208D01*
X0054341Y0048249D01*
X0054418Y0048294D01*
X0054492Y0048342D01*
X0054564Y0048394D01*
X0054634Y0048448D01*
X0054701Y0048506D01*
X0054765Y0048566D01*
X0054827Y0048629D01*
X0054886Y0048695D01*
X0054942Y0048764D01*
X0054995Y0048835D01*
X0055045Y0048908D01*
X0055092Y0048983D01*
X0055135Y0049061D01*
X0055174Y0049140D01*
X0055210Y0049220D01*
X0055243Y0049303D01*
X0055272Y0049386D01*
X0055297Y0049471D01*
X0055318Y0049557D01*
X0055336Y0049644D01*
X0055349Y0049731D01*
X0055359Y0049819D01*
X0055365Y0049908D01*
X0055367Y0049996D01*
D14*
X0047067Y0049996D02*
X0047067Y0014996D01*
D15*
X0082385Y0043592D02*
X0082583Y0043394D01*
X0082820Y0043245D01*
X0083084Y0043152D01*
X0083362Y0043121D01*
X0083640Y0043152D01*
X0083905Y0043245D01*
X0084142Y0043394D01*
X0084339Y0043592D01*
X0084488Y0043829D01*
X0084581Y0044093D01*
X0082143Y0044093D01*
X0082236Y0043829D01*
X0084489Y0043829D01*
X0084491Y0043838D02*
X0082233Y0043838D01*
X0082230Y0043846D02*
X0084494Y0043846D01*
X0084497Y0043855D02*
X0082227Y0043855D01*
X0082224Y0043863D02*
X0084500Y0043863D01*
X0084503Y0043872D02*
X0082221Y0043872D01*
X0082218Y0043880D02*
X0084506Y0043880D01*
X0084509Y0043889D02*
X0082215Y0043889D01*
X0082212Y0043897D02*
X0084512Y0043897D01*
X0084515Y0043906D02*
X0082209Y0043906D01*
X0082206Y0043914D02*
X0084518Y0043914D01*
X0084521Y0043923D02*
X0082203Y0043923D01*
X0082200Y0043931D02*
X0084524Y0043931D01*
X0084527Y0043940D02*
X0082197Y0043940D01*
X0082194Y0043948D02*
X0084530Y0043948D01*
X0084533Y0043957D02*
X0082191Y0043957D01*
X0082188Y0043965D02*
X0084536Y0043965D01*
X0084539Y0043974D02*
X0082185Y0043974D01*
X0082182Y0043982D02*
X0084542Y0043982D01*
X0084545Y0043991D02*
X0082179Y0043991D01*
X0082176Y0043999D02*
X0084548Y0043999D01*
X0084551Y0044008D02*
X0082173Y0044008D01*
X0082170Y0044016D02*
X0084554Y0044016D01*
X0084557Y0044025D02*
X0082167Y0044025D01*
X0082164Y0044034D02*
X0084560Y0044034D01*
X0084563Y0044042D02*
X0082161Y0044042D01*
X0082158Y0044051D02*
X0084566Y0044051D01*
X0084569Y0044059D02*
X0082155Y0044059D01*
X0082152Y0044068D02*
X0084572Y0044068D01*
X0084575Y0044076D02*
X0082149Y0044076D01*
X0082146Y0044085D02*
X0084578Y0044085D01*
X0084581Y0044093D02*
X0084612Y0044371D01*
X0084581Y0044649D01*
X0084488Y0044913D01*
X0084339Y0045150D01*
X0084142Y0045348D01*
X0083905Y0045497D01*
X0083640Y0045590D01*
X0083362Y0045621D01*
X0083084Y0045590D01*
X0082820Y0045497D01*
X0082583Y0045348D01*
X0082385Y0045150D01*
X0082236Y0044913D01*
X0082143Y0044649D01*
X0082112Y0044371D01*
X0082143Y0044093D01*
X0082143Y0044102D02*
X0084582Y0044102D01*
X0084583Y0044110D02*
X0082142Y0044110D01*
X0082141Y0044119D02*
X0084584Y0044119D01*
X0084585Y0044127D02*
X0082140Y0044127D01*
X0082139Y0044136D02*
X0084586Y0044136D01*
X0084587Y0044144D02*
X0082138Y0044144D01*
X0082137Y0044153D02*
X0084588Y0044153D01*
X0084589Y0044161D02*
X0082136Y0044161D01*
X0082135Y0044170D02*
X0084589Y0044170D01*
X0084590Y0044178D02*
X0082134Y0044178D01*
X0082133Y0044187D02*
X0084591Y0044187D01*
X0084592Y0044195D02*
X0082132Y0044195D01*
X0082131Y0044204D02*
X0084593Y0044204D01*
X0084594Y0044212D02*
X0082130Y0044212D01*
X0082129Y0044221D02*
X0084595Y0044221D01*
X0084596Y0044229D02*
X0082128Y0044229D01*
X0082127Y0044238D02*
X0084597Y0044238D01*
X0084598Y0044246D02*
X0082126Y0044246D01*
X0082125Y0044255D02*
X0084599Y0044255D01*
X0084600Y0044263D02*
X0082124Y0044263D01*
X0082123Y0044272D02*
X0084601Y0044272D01*
X0084602Y0044280D02*
X0082122Y0044280D01*
X0082121Y0044289D02*
X0084603Y0044289D01*
X0084604Y0044297D02*
X0082120Y0044297D01*
X0082119Y0044306D02*
X0084605Y0044306D01*
X0084606Y0044314D02*
X0082119Y0044314D01*
X0082118Y0044323D02*
X0084607Y0044323D01*
X0084608Y0044331D02*
X0082117Y0044331D01*
X0082116Y0044340D02*
X0084609Y0044340D01*
X0084610Y0044349D02*
X0082115Y0044349D01*
X0082114Y0044357D02*
X0084611Y0044357D01*
X0084612Y0044366D02*
X0082113Y0044366D01*
X0082113Y0044374D02*
X0084612Y0044374D01*
X0084611Y0044383D02*
X0082113Y0044383D01*
X0082114Y0044391D02*
X0084610Y0044391D01*
X0084609Y0044400D02*
X0082115Y0044400D01*
X0082116Y0044408D02*
X0084608Y0044408D01*
X0084607Y0044417D02*
X0082117Y0044417D01*
X0082118Y0044425D02*
X0084606Y0044425D01*
X0084605Y0044434D02*
X0082119Y0044434D01*
X0082120Y0044442D02*
X0084604Y0044442D01*
X0084603Y0044451D02*
X0082121Y0044451D01*
X0082122Y0044459D02*
X0084602Y0044459D01*
X0084601Y0044468D02*
X0082123Y0044468D01*
X0082124Y0044476D02*
X0084600Y0044476D01*
X0084599Y0044485D02*
X0082125Y0044485D01*
X0082126Y0044493D02*
X0084598Y0044493D01*
X0084597Y0044502D02*
X0082127Y0044502D01*
X0082128Y0044510D02*
X0084596Y0044510D01*
X0084596Y0044519D02*
X0082129Y0044519D01*
X0082130Y0044527D02*
X0084595Y0044527D01*
X0084594Y0044536D02*
X0082131Y0044536D01*
X0082132Y0044544D02*
X0084593Y0044544D01*
X0084592Y0044553D02*
X0082133Y0044553D01*
X0082134Y0044561D02*
X0084591Y0044561D01*
X0084590Y0044570D02*
X0082135Y0044570D01*
X0082136Y0044578D02*
X0084589Y0044578D01*
X0084588Y0044587D02*
X0082136Y0044587D01*
X0082137Y0044595D02*
X0084587Y0044595D01*
X0084586Y0044604D02*
X0082138Y0044604D01*
X0082139Y0044612D02*
X0084585Y0044612D01*
X0084584Y0044621D02*
X0082140Y0044621D01*
X0082141Y0044629D02*
X0084583Y0044629D01*
X0084582Y0044638D02*
X0082142Y0044638D01*
X0082143Y0044647D02*
X0084581Y0044647D01*
X0084579Y0044655D02*
X0082146Y0044655D01*
X0082149Y0044664D02*
X0084576Y0044664D01*
X0084573Y0044672D02*
X0082151Y0044672D01*
X0082154Y0044681D02*
X0084570Y0044681D01*
X0084567Y0044689D02*
X0082157Y0044689D01*
X0082160Y0044698D02*
X0084564Y0044698D01*
X0084561Y0044706D02*
X0082163Y0044706D01*
X0082166Y0044715D02*
X0084558Y0044715D01*
X0084555Y0044723D02*
X0082169Y0044723D01*
X0082172Y0044732D02*
X0084552Y0044732D01*
X0084549Y0044740D02*
X0082175Y0044740D01*
X0082178Y0044749D02*
X0084546Y0044749D01*
X0084543Y0044757D02*
X0082181Y0044757D01*
X0082184Y0044766D02*
X0084540Y0044766D01*
X0084537Y0044774D02*
X0082187Y0044774D01*
X0082190Y0044783D02*
X0084534Y0044783D01*
X0084531Y0044791D02*
X0082193Y0044791D01*
X0082196Y0044800D02*
X0084528Y0044800D01*
X0084525Y0044808D02*
X0082199Y0044808D01*
X0082202Y0044817D02*
X0084522Y0044817D01*
X0084519Y0044825D02*
X0082205Y0044825D01*
X0082208Y0044834D02*
X0084516Y0044834D01*
X0084513Y0044842D02*
X0082211Y0044842D01*
X0082214Y0044851D02*
X0084510Y0044851D01*
X0084507Y0044859D02*
X0082217Y0044859D01*
X0082220Y0044868D02*
X0084504Y0044868D01*
X0084501Y0044876D02*
X0082223Y0044876D01*
X0082226Y0044885D02*
X0084498Y0044885D01*
X0084495Y0044893D02*
X0082229Y0044893D01*
X0082232Y0044902D02*
X0084492Y0044902D01*
X0084489Y0044910D02*
X0082235Y0044910D01*
X0082239Y0044919D02*
X0084485Y0044919D01*
X0084480Y0044927D02*
X0082245Y0044927D01*
X0082250Y0044936D02*
X0084474Y0044936D01*
X0084469Y0044944D02*
X0082255Y0044944D01*
X0082261Y0044953D02*
X0084463Y0044953D01*
X0084458Y0044962D02*
X0082266Y0044962D01*
X0082272Y0044970D02*
X0084453Y0044970D01*
X0084447Y0044979D02*
X0082277Y0044979D01*
X0082282Y0044987D02*
X0084442Y0044987D01*
X0084437Y0044996D02*
X0082288Y0044996D01*
X0082293Y0045004D02*
X0084431Y0045004D01*
X0084426Y0045013D02*
X0082298Y0045013D01*
X0082304Y0045021D02*
X0084421Y0045021D01*
X0084415Y0045030D02*
X0082309Y0045030D01*
X0082314Y0045038D02*
X0084410Y0045038D01*
X0084405Y0045047D02*
X0082320Y0045047D01*
X0082325Y0045055D02*
X0084399Y0045055D01*
X0084394Y0045064D02*
X0082330Y0045064D01*
X0082336Y0045072D02*
X0084389Y0045072D01*
X0084383Y0045081D02*
X0082341Y0045081D01*
X0082346Y0045089D02*
X0084378Y0045089D01*
X0084373Y0045098D02*
X0082352Y0045098D01*
X0082357Y0045106D02*
X0084367Y0045106D01*
X0084362Y0045115D02*
X0082362Y0045115D01*
X0082368Y0045123D02*
X0084357Y0045123D01*
X0084351Y0045132D02*
X0082373Y0045132D01*
X0082379Y0045140D02*
X0084346Y0045140D01*
X0084340Y0045149D02*
X0082384Y0045149D01*
X0082392Y0045157D02*
X0084333Y0045157D01*
X0084324Y0045166D02*
X0082400Y0045166D01*
X0082409Y0045174D02*
X0084316Y0045174D01*
X0084307Y0045183D02*
X0082417Y0045183D01*
X0082426Y0045191D02*
X0084298Y0045191D01*
X0084290Y0045200D02*
X0082434Y0045200D01*
X0082443Y0045208D02*
X0084281Y0045208D01*
X0084273Y0045217D02*
X0082451Y0045217D01*
X0082460Y0045225D02*
X0084264Y0045225D01*
X0084256Y0045234D02*
X0082468Y0045234D01*
X0082477Y0045242D02*
X0084247Y0045242D01*
X0084239Y0045251D02*
X0082485Y0045251D01*
X0082494Y0045259D02*
X0084230Y0045259D01*
X0084222Y0045268D02*
X0082502Y0045268D01*
X0082511Y0045277D02*
X0084213Y0045277D01*
X0084205Y0045285D02*
X0082519Y0045285D01*
X0082528Y0045294D02*
X0084196Y0045294D01*
X0084188Y0045302D02*
X0082537Y0045302D01*
X0082545Y0045311D02*
X0084179Y0045311D01*
X0084171Y0045319D02*
X0082554Y0045319D01*
X0082562Y0045328D02*
X0084162Y0045328D01*
X0084154Y0045336D02*
X0082571Y0045336D01*
X0082579Y0045345D02*
X0084145Y0045345D01*
X0084134Y0045353D02*
X0082590Y0045353D01*
X0082604Y0045362D02*
X0084120Y0045362D01*
X0084107Y0045370D02*
X0082618Y0045370D01*
X0082631Y0045379D02*
X0084093Y0045379D01*
X0084080Y0045387D02*
X0082645Y0045387D01*
X0082658Y0045396D02*
X0084066Y0045396D01*
X0084053Y0045404D02*
X0082672Y0045404D01*
X0082685Y0045413D02*
X0084039Y0045413D01*
X0084025Y0045421D02*
X0082699Y0045421D01*
X0082712Y0045430D02*
X0084012Y0045430D01*
X0083998Y0045438D02*
X0082726Y0045438D01*
X0082739Y0045447D02*
X0083985Y0045447D01*
X0083971Y0045455D02*
X0082753Y0045455D01*
X0082767Y0045464D02*
X0083958Y0045464D01*
X0083944Y0045472D02*
X0082780Y0045472D01*
X0082794Y0045481D02*
X0083931Y0045481D01*
X0083917Y0045489D02*
X0082807Y0045489D01*
X0082822Y0045498D02*
X0083903Y0045498D01*
X0083878Y0045506D02*
X0082846Y0045506D01*
X0082870Y0045515D02*
X0083854Y0045515D01*
X0083830Y0045523D02*
X0082895Y0045523D01*
X0082919Y0045532D02*
X0083805Y0045532D01*
X0083781Y0045540D02*
X0082943Y0045540D01*
X0082968Y0045549D02*
X0083757Y0045549D01*
X0083732Y0045557D02*
X0082992Y0045557D01*
X0083016Y0045566D02*
X0083708Y0045566D01*
X0083684Y0045575D02*
X0083041Y0045575D01*
X0083065Y0045583D02*
X0083659Y0045583D01*
X0083624Y0045592D02*
X0083100Y0045592D01*
X0083176Y0045600D02*
X0083549Y0045600D01*
X0083473Y0045609D02*
X0083251Y0045609D01*
X0083327Y0045617D02*
X0083398Y0045617D01*
X0084483Y0043821D02*
X0082241Y0043821D01*
X0082236Y0043829D02*
X0082385Y0043592D01*
X0082386Y0043591D02*
X0084339Y0043591D01*
X0084344Y0043599D02*
X0082380Y0043599D01*
X0082375Y0043608D02*
X0084350Y0043608D01*
X0084355Y0043616D02*
X0082369Y0043616D01*
X0082364Y0043625D02*
X0084360Y0043625D01*
X0084366Y0043633D02*
X0082359Y0043633D01*
X0082353Y0043642D02*
X0084371Y0043642D01*
X0084376Y0043650D02*
X0082348Y0043650D01*
X0082343Y0043659D02*
X0084382Y0043659D01*
X0084387Y0043667D02*
X0082337Y0043667D01*
X0082332Y0043676D02*
X0084392Y0043676D01*
X0084398Y0043684D02*
X0082327Y0043684D01*
X0082321Y0043693D02*
X0084403Y0043693D01*
X0084408Y0043701D02*
X0082316Y0043701D01*
X0082311Y0043710D02*
X0084414Y0043710D01*
X0084419Y0043719D02*
X0082305Y0043719D01*
X0082300Y0043727D02*
X0084424Y0043727D01*
X0084430Y0043736D02*
X0082294Y0043736D01*
X0082289Y0043744D02*
X0084435Y0043744D01*
X0084441Y0043753D02*
X0082284Y0043753D01*
X0082278Y0043761D02*
X0084446Y0043761D01*
X0084451Y0043770D02*
X0082273Y0043770D01*
X0082268Y0043778D02*
X0084457Y0043778D01*
X0084462Y0043787D02*
X0082262Y0043787D01*
X0082257Y0043795D02*
X0084467Y0043795D01*
X0084473Y0043804D02*
X0082252Y0043804D01*
X0082246Y0043812D02*
X0084478Y0043812D01*
X0084330Y0043582D02*
X0082394Y0043582D01*
X0082403Y0043574D02*
X0084322Y0043574D01*
X0084313Y0043565D02*
X0082411Y0043565D01*
X0082420Y0043557D02*
X0084304Y0043557D01*
X0084296Y0043548D02*
X0082428Y0043548D01*
X0082437Y0043540D02*
X0084287Y0043540D01*
X0084279Y0043531D02*
X0082445Y0043531D01*
X0082454Y0043523D02*
X0084270Y0043523D01*
X0084262Y0043514D02*
X0082462Y0043514D01*
X0082471Y0043506D02*
X0084253Y0043506D01*
X0084245Y0043497D02*
X0082479Y0043497D01*
X0082488Y0043489D02*
X0084236Y0043489D01*
X0084228Y0043480D02*
X0082496Y0043480D01*
X0082505Y0043472D02*
X0084219Y0043472D01*
X0084211Y0043463D02*
X0082513Y0043463D01*
X0082522Y0043455D02*
X0084202Y0043455D01*
X0084194Y0043446D02*
X0082530Y0043446D01*
X0082539Y0043438D02*
X0084185Y0043438D01*
X0084177Y0043429D02*
X0082548Y0043429D01*
X0082556Y0043421D02*
X0084168Y0043421D01*
X0084160Y0043412D02*
X0082565Y0043412D01*
X0082573Y0043403D02*
X0084151Y0043403D01*
X0084143Y0043395D02*
X0082582Y0043395D01*
X0082594Y0043386D02*
X0084130Y0043386D01*
X0084116Y0043378D02*
X0082608Y0043378D01*
X0082622Y0043369D02*
X0084103Y0043369D01*
X0084089Y0043361D02*
X0082635Y0043361D01*
X0082649Y0043352D02*
X0084076Y0043352D01*
X0084062Y0043344D02*
X0082662Y0043344D01*
X0082676Y0043335D02*
X0084049Y0043335D01*
X0084035Y0043327D02*
X0082689Y0043327D01*
X0082703Y0043318D02*
X0084021Y0043318D01*
X0084008Y0043310D02*
X0082716Y0043310D01*
X0082730Y0043301D02*
X0083994Y0043301D01*
X0083981Y0043293D02*
X0082743Y0043293D01*
X0082757Y0043284D02*
X0083967Y0043284D01*
X0083954Y0043276D02*
X0082771Y0043276D01*
X0082784Y0043267D02*
X0083940Y0043267D01*
X0083927Y0043259D02*
X0082798Y0043259D01*
X0082811Y0043250D02*
X0083913Y0043250D01*
X0083896Y0043242D02*
X0082829Y0043242D01*
X0082853Y0043233D02*
X0083871Y0043233D01*
X0083847Y0043225D02*
X0082877Y0043225D01*
X0082902Y0043216D02*
X0083823Y0043216D01*
X0083798Y0043208D02*
X0082926Y0043208D01*
X0082950Y0043199D02*
X0083774Y0043199D01*
X0083750Y0043191D02*
X0082975Y0043191D01*
X0082999Y0043182D02*
X0083725Y0043182D01*
X0083701Y0043174D02*
X0083023Y0043174D01*
X0083048Y0043165D02*
X0083677Y0043165D01*
X0083652Y0043157D02*
X0083072Y0043157D01*
X0083122Y0043148D02*
X0083602Y0043148D01*
X0083526Y0043140D02*
X0083198Y0043140D01*
X0083273Y0043131D02*
X0083451Y0043131D01*
X0083375Y0043123D02*
X0083349Y0043123D01*
M02*
